{
  "accessors": [
    {
      "bufferView": 1,
      "componentType": 5123,
      "type": "SCALAR",
      "count": 48
    },
    {
      "bufferView": 2,
      "componentType": 5126,
      "type": "VEC3",
      "count": 32,
      "min": [4, 15, 15],
      "max": [7, 16, 16]
    },
    {
      "bufferView": 2,
      "componentType": 5126,
      "type": "VEC3",
      "byteOffset": 12,
      "count": 32
    },
    {
      "bufferView": 2,
      "componentType": 5126,
      "type": "VEC2",
      "byteOffset": 24,
      "count": 32
    },
    {
      "bufferView": 3,
      "componentType": 5123,
      "type": "SCALAR",
      "count": 402
    },
    {
      "bufferView": 4,
      "componentType": 5126,
      "type": "VEC3",
      "count": 268,
      "min": [10, 1, 7],
      "max": [16, 3, 16]
    },
    {
      "bufferView": 4,
      "componentType": 5126,
      "type": "VEC3",
      "byteOffset": 12,
      "count": 268
    },
    {
      "bufferView": 4,
      "componentType": 5126,
      "type": "VEC2",
      "byteOffset": 24,
      "count": 268
    },
    {
      "bufferView": 5,
      "componentType": 5123,
      "type": "SCALAR",
      "count": 2280
    },
    {
      "bufferView": 6,
      "componentType": 5126,
      "type": "VEC3",
      "count": 1520,
      "min": [0, 0, 0],
      "max": [15, 3, 16]
    },
    {
      "bufferView": 6,
      "componentType": 5126,
      "type": "VEC3",
      "byteOffset": 12,
      "count": 1520
    },
    {
      "bufferView": 6,
      "componentType": 5126,
      "type": "VEC2",
      "byteOffset": 24,
      "count": 1520
    },
    {
      "bufferView": 7,
      "componentType": 5123,
      "type": "SCALAR",
      "count": 438
    },
    {
      "bufferView": 8,
      "componentType": 5126,
      "type": "VEC3",
      "count": 292,
      "min": [1, 15, 0],
      "max": [9, 16, 7]
    },
    {
      "bufferView": 8,
      "componentType": 5126,
      "type": "VEC3",
      "byteOffset": 12,
      "count": 292
    },
    {
      "bufferView": 8,
      "componentType": 5126,
      "type": "VEC2",
      "byteOffset": 24,
      "count": 292
    },
    {
      "bufferView": 9,
      "componentType": 5123,
      "type": "SCALAR",
      "count": 318
    },
    {
      "bufferView": 10,
      "componentType": 5126,
      "type": "VEC3",
      "count": 212,
      "min": [13, 0, 0],
      "max": [16, 2, 7]
    },
    {
      "bufferView": 10,
      "componentType": 5126,
      "type": "VEC3",
      "byteOffset": 12,
      "count": 212
    },
    {
      "bufferView": 10,
      "componentType": 5126,
      "type": "VEC2",
      "byteOffset": 24,
      "count": 212
    },
    {
      "bufferView": 11,
      "componentType": 5123,
      "type": "SCALAR",
      "count": 1626
    },
    {
      "bufferView": 12,
      "componentType": 5126,
      "type": "VEC3",
      "count": 1084,
      "min": [0, 0, 0],
      "max": [13, 3, 11]
    },
    {
      "bufferView": 12,
      "componentType": 5126,
      "type": "VEC3",
      "byteOffset": 12,
      "count": 1084
    },
    {
      "bufferView": 12,
      "componentType": 5126,
      "type": "VEC2",
      "byteOffset": 24,
      "count": 1084
    }
  ],
  "asset": {
    "generator": "goxel",
    "version": "2.0"
  },
  "bufferViews": [
    {
      "buffer": 0,
      "byteLength": 98
    },
    {
      "buffer": 2,
      "byteLength": 96
    },
    {
      "buffer": 1,
      "byteLength": 1024,
      "byteStride": 32
    },
    {
      "buffer": 4,
      "byteLength": 804
    },
    {
      "buffer": 3,
      "byteLength": 8576,
      "byteStride": 32
    },
    {
      "buffer": 6,
      "byteLength": 4560
    },
    {
      "buffer": 5,
      "byteLength": 48640,
      "byteStride": 32
    },
    {
      "buffer": 8,
      "byteLength": 876
    },
    {
      "buffer": 7,
      "byteLength": 9344,
      "byteStride": 32
    },
    {
      "buffer": 10,
      "byteLength": 636
    },
    {
      "buffer": 9,
      "byteLength": 6784,
      "byteStride": 32
    },
    {
      "buffer": 12,
      "byteLength": 3252
    },
    {
      "buffer": 11,
      "byteLength": 34688,
      "byteStride": 32
    }
  ],
  "buffers": [
    {
      "uri": "data:application/octet-stream;base64,",
      "byteLength": 98
    },
    {
      "uri": "data:application/octet-stream;base64,",
      "byteLength": 1024
    },
    {
      "uri": "data:application/octet-stream;base64,",
      "byteLength": 96
    },
    {
      "uri": "data:application/octet-stream;base64,",
      "byteLength": 8576
    },
    {
      "uri": "data:application/octet-stream;base64,",
      "byteLength": 804
    },
    {
      "uri": "data:application/octet-stream;base64,",
      "byteLength": 48640
    },
    {
      "uri": "data:application/octet-stream;base64,",
      "byteLength": 4560
    },
    {
      "uri": "data:application/octet-stream;base64,",
      "byteLength": 9344
    },
    {
      "uri": "data:application/octet-stream;base64,",
      "byteLength": 876
    },
    {
      "uri": "data:application/octet-stream;base64,",
      "byteLength": 6784
    },
    {
      "uri": "data:application/octet-stream;base64,",
      "byteLength": 636
    },
    {
      "uri": "data:application/octet-stream;base64,",
      "byteLength": 34688
    },
    {
      "uri": "data:application/octet-stream;base64,",
      "byteLength": 3252
    }
  ],
  "images": [
    {
      "bufferView": 0,
      "mimeType": "image/png"
    }
  ],
  "meshes": [
    {
      "primitives": [
        {
          "indices": 0,
          "material": 0,
          "attributes": {
            "POSITION": 1,
            "NORMAL": 2,
            "TEXCOORD_0": 3
          }
        }
      ]
    },
    {
      "primitives": [
        {
          "indices": 4,
          "material": 0,
          "attributes": {
            "POSITION": 5,
            "NORMAL": 6,
            "TEXCOORD_0": 7
          }
        }
      ]
    },
    {
      "primitives": [
        {
          "indices": 8,
          "material": 0,
          "attributes": {
            "POSITION": 9,
            "NORMAL": 10,
            "TEXCOORD_0": 11
          }
        }
      ]
    },
    {
      "primitives": [
        {
          "indices": 12,
          "material": 0,
          "attributes": {
            "POSITION": 13,
            "NORMAL": 14,
            "TEXCOORD_0": 15
          }
        }
      ]
    },
    {
      "primitives": [
        {
          "indices": 16,
          "material": 0,
          "attributes": {
            "POSITION": 17,
            "NORMAL": 18,
            "TEXCOORD_0": 19
          }
        }
      ]
    },
    {
      "primitives": [
        {
          "indices": 20,
          "material": 0,
          "attributes": {
            "POSITION": 21,
            "NORMAL": 22,
            "TEXCOORD_0": 23
          }
        }
      ]
    }
  ],
  "materials": [
    {
      "name": "Material.1",
      "pbrMetallicRoughness": {
        "baseColorTexture": {
          "index": 0
        },
        "metallicFactor": 0.200000003,
        "roughnessFactor": 0.5
      }
    }
  ],
  "nodes": [
    {
      "children": [ 7 ],
      "matrix": [1, 0, 0, 0, 0, 0, -1, 0, 0, 1, 0, 0, 0, 0, 0, 1]
    },
    {
      "mesh": 0,
      "translation": [0, -16, 0]
    },
    {
      "mesh": 1,
      "translation": [-16, 0, 0]
    },
    {
      "mesh": 2,
      "translation": [0, 0, 0]
    },
    {
      "mesh": 3,
      "translation": [0, -16, 16]
    },
    {
      "mesh": 4,
      "translation": [-16, 0, 16]
    },
    {
      "mesh": 5,
      "translation": [0, 0, 16]
    },
    {
      "children": [ 1, 2, 3, 4, 5, 6 ]
    }
  ],
  "scenes": [
    {
      "nodes": [ 0 ]
    }
  ],
  "textures": [
    {
      "source": 0
    }
  ]
}
